<svg width="978" height="731" viewBox="0 0 978 731" fill="none" xmlns="http://www.w3.org/2000/svg">
<path d="M959.1 246.61C945.38 203.76 923.65 164.53 895.7 130.64L841.73 193.69C858.97 217.01 872.62 243.15 881.67 271.4C911.04 363.11 896.73 458.39 842.41 532.81C789.1 605.86 703.36 649.47 613.06 649.47C566.96 649.47 522.21 638.16 482.23 617.35L428.96 680.75C484.25 713.09 547.6 730.77 613.06 730.77C729.23 730.77 839.51 674.68 908.08 580.73C977.88 485.11 996.47 363.32 959.1 246.61Z" fill="#FAEAEB"/>
<path d="M733.67 20.2C623.32 -15.57 510.73 -2.11999 416.65 58.08C335.18 110.21 278.55 191.11 257.36 283.88C235.25 278.94 212.33 277.56 189.6 279.9C88.65 290.27 7.72001 374.49 1.34001 475.79C-2.35999 534.63 17.74 590.62 57.96 633.44C97.61 675.66 153.57 699.88 211.47 699.88C269.44 699.88 323.39 676.53 362.59 635.94L366.65 631.2L366.86 630.95L417.81 571.43C417.8 571.42 417.8 571.42 417.79 571.41L420.47 568.28L356.86 516.92L324.39 555.58C323.62 556.45 322.81 557.28 322.11 558.22C321.88 558.53 321.64 558.81 321.41 559.12L309.4 573.42C283.63 600.98 249.72 618.57 211.46 618.57C175.39 618.57 141.92 604.08 117.21 577.77C92.53 551.49 80.19 517.08 82.47 480.88C86.38 418.76 136 367.12 197.89 360.76C220.46 358.44 242.34 361.83 262.93 370.83C277.16 377.04 293.69 376.15 307.14 368.45C320.53 360.78 329.61 347.06 331.44 331.74C341.51 247.36 388.53 172.57 460.45 126.56C533.67 79.7 621.79 69.4 708.58 97.53C736.65 106.63 762.6 120.34 785.76 137.59L838.16 75.23C807.04 51.37 771.82 32.56 733.67 20.2Z" fill="#FAEAEB"/>
</svg>
