<svg width="976" height="203" viewBox="0 0 976 203" fill="none" xmlns="http://www.w3.org/2000/svg">
<path d="M0.270028 22.13C0.260028 10.5 9.17003 0.790005 21.58 0.780005L75.49 0.740012C116.21 0.710012 144.93 32.1 144.96 68.94C144.98 90.66 134.91 110.06 118.24 120.54C115.53 122.87 113.2 124.03 110.49 125.59L145.43 166.67C148.54 170.16 150.87 175.59 150.87 180.63C150.88 192.26 140.8 201.97 129.17 201.98C122.97 201.98 117.15 199.66 112.88 194.24L61.25 133C58.14 129.12 55.81 124.47 55.81 118.27C55.8 105.86 64.33 98.87 72.08 97.7L75.96 97.31C92.64 95.75 102.71 83.33 102.7 68.98C102.69 52.3 90.66 40.29 72.04 40.3L42.95 40.32L43.06 180.32C43.07 192.34 33.77 202.05 21.75 202.05C9.73003 202.06 0.410027 192.37 0.400027 180.35L0.270028 22.13Z" fill="#FBE9EB"/>
<path d="M180.26 101.97C180.22 45.97 222.94 1.67003 280.45 1.63003C309.96 1.61003 333.05 13.32 345.92 25.04C350.46 29.2 353.49 34.87 353.5 40.93C353.5 46.23 351.99 50.77 347.46 56.07L289.25 125.35C285.09 130.27 280.55 132.17 274.88 132.17C263.53 132.18 255.2 124.24 255.19 113.27C255.19 108.73 256.32 104.19 259.72 100.78L305.46 47.02C299.02 42.48 288.81 40.22 280.48 40.23C247.94 40.25 222.23 67.52 222.26 101.95C222.29 136 247.66 163.6 280.57 163.58C298.35 163.57 311.59 155.99 320.66 146.52C326.71 141.6 330.87 137.05 338.81 137.05C350.54 137.04 359.25 145.36 359.26 157.09C359.26 161.25 357 166.55 353.22 170.72C338.86 188.14 312.76 202.15 280.6 202.18C223.47 202.2 180.3 157.97 180.26 101.97Z" fill="#FBE9EB"/>
<path d="M398.12 16.44C398.11 7.78001 407.19 1.07001 418.92 1.06001C430.65 1.05001 439.73 7.75002 439.74 16.41L439.87 186.01C439.88 194.67 430.8 201.66 419.07 201.67C407.34 201.68 398.26 194.7 398.25 186.04L398.12 16.44ZM454.95 116.14C451.92 111.98 449.27 106.69 449.26 100.63C449.26 96.09 451.52 90.03 454.92 86.25L519.94 8.64001C524.1 4.10001 528.26 1.82002 534.31 1.82002C545.28 1.81002 553.99 9.75001 554 20.72C554 25.26 552.87 29.42 549.47 33.21L494.66 98.71L552.6 167.15C555.63 170.93 557.53 176.23 557.53 180.77C557.54 192.5 547.33 201.59 536.36 201.6C530.68 201.6 524.63 198.96 520.84 194.04L454.95 116.14Z" fill="#FBE9EB"/>
<path d="M576.01 101.67C575.97 45.67 618.69 1.36998 676.2 1.32998C734.09 1.28998 776.5 45.52 776.54 101.52C776.58 157.52 734.24 201.82 676.35 201.86C618.84 201.9 576.05 157.66 576.01 101.67ZM734.54 101.55C734.51 67.5 709.52 39.9 676.23 39.92C642.94 39.94 617.98 67.58 618.01 101.64C618.04 135.32 643.03 163.29 676.32 163.27C709.61 163.25 734.57 135.22 734.54 101.55Z" fill="#FBE9EB"/>
<path d="M805.65 89.39C805.61 35.28 843.04 1.20002 890.71 1.17002C938.38 1.13002 975.87 35.16 975.91 89.26L975.98 180.07C975.99 191.8 966.54 201.26 955.19 201.27C943.46 201.28 934.37 191.83 934.36 180.1L934.29 87.78C934.27 56.38 914.96 39.74 890.74 39.76C866.52 39.78 847.24 56.44 847.26 87.85L847.33 180.17C847.34 191.9 838.27 201.36 826.54 201.37C814.81 201.38 805.72 191.93 805.71 180.2L805.65 89.39Z" fill="#FBE9EB"/>
</svg>
